<mxfile host="app.diagrams.net" modified="2024-01-08T04:51:52.334Z" agent="Mozilla/5.0 (Macintosh; Intel Mac OS X 10_15_7) AppleWebKit/605.1.15 (KHTML, like Gecko) Version/17.2 Safari/605.1.15" etag="9Ax9U-z2MMtsB7jj-2j0" version="22.1.17" type="github">
  <diagram name="Page-1" id="_gUI3LzOWk2U74c7c7OR">
    <mxGraphModel dx="766" dy="1020" grid="1" gridSize="10" guides="1" tooltips="1" connect="1" arrows="1" fold="1" page="1" pageScale="1" pageWidth="850" pageHeight="1100" math="0" shadow="0">
      <root>
        <mxCell id="0" />
        <mxCell id="1" parent="0" />
      </root>
    </mxGraphModel>
  </diagram>
</mxfile>
